<svg width="15" height="24" viewBox="0 0 13 22" fill="none" xmlns="http://www.w3.org/2000/svg">
<path d="M12.3594 11.7972L3.26562 20.8909C3.04688 21.1097 2.78125 21.2191 2.46875 21.2191C2.15625 21.2191 1.89062 21.1097 1.67188 20.8909L0.640625 19.8597C0.421875 19.6409 0.296875 19.3753 0.265625 19.0628C0.265625 18.7503 0.375 18.4847 0.59375 18.2659L7.85938 11.0003L0.59375 3.73468C0.375 3.51593 0.265625 3.25031 0.265625 2.93781C0.296875 2.62531 0.421875 2.35968 0.640625 2.14093L1.67188 1.10968C1.89062 0.89093 2.15625 0.781555 2.46875 0.781555C2.78125 0.781555 3.04688 0.89093 3.26562 1.10968L12.3594 10.2034C12.6094 10.4222 12.7344 10.6878 12.7344 11.0003C12.7344 11.3128 12.6094 11.5784 12.3594 11.7972Z" fill="black"/>
</svg>
