<svg width="44" height="45" viewBox="0 0 44 45" fill="none" xmlns="http://www.w3.org/2000/svg">
<path d="M44 40.375C44 41.5208 43.599 42.4948 42.7969 43.2969C41.9948 44.099 41.0208 44.5 39.875 44.5H4.125C2.97917 44.5 2.00521 44.099 1.20312 43.2969C0.401042 42.4948 0 41.5208 0 40.375V17.7734C0 16.3984 0.515625 15.3099 1.54688 14.5078C3.89583 12.6745 8.6224 9.17969 15.7266 4.02344C15.7266 4.02344 16.1276 3.73698 16.9297 3.16406C17.7318 2.53385 18.3333 2.10417 18.7344 1.875C19.1354 1.58854 19.651 1.30208 20.2812 1.01562C20.9688 0.671875 21.5417 0.5 22 0.5C22.4583 0.5 23.0026 0.671875 23.6328 1.01562C24.3203 1.30208 24.8646 1.58854 25.2656 1.875C25.6667 2.10417 26.2682 2.53385 27.0703 3.16406C27.8724 3.73698 28.2734 4.02344 28.2734 4.02344C35.3776 9.17969 40.1042 12.6745 42.4531 14.5078C43.4844 15.3099 44 16.3984 44 17.7734V40.375ZM38.3281 23.4453C38.099 23.1016 37.7839 23.0443 37.3828 23.2734C35.3776 24.8203 32.3411 27.0547 28.2734 29.9766C28.2734 29.9766 27.8724 30.2917 27.0703 30.9219C26.2682 31.4948 25.6667 31.9245 25.2656 32.2109C24.8646 32.4401 24.3203 32.7266 23.6328 33.0703C23.0026 33.3568 22.4583 33.5 22 33.5C21.599 33.5 21.1693 33.4141 20.7109 33.2422C20.2526 33.0703 19.7656 32.8411 19.25 32.5547C18.7917 32.2109 18.362 31.9245 17.9609 31.6953C17.6172 31.4089 17.1875 31.0651 16.6719 30.6641C16.1562 30.263 15.8411 30.0339 15.7266 29.9766C11.6589 27.0547 8.6224 24.8203 6.61719 23.2734C6.21615 23.0443 5.90104 23.1016 5.67188 23.4453L4.89844 24.6484C4.78385 24.763 4.72656 24.8776 4.72656 24.9922C4.72656 25.2214 4.8125 25.4219 4.98438 25.5938C7.04688 27.0833 10.0833 29.2604 14.0938 32.125C14.2083 32.2396 14.5807 32.5547 15.2109 33.0703C15.8411 33.5286 16.3568 33.901 16.7578 34.1875C17.1589 34.474 17.6745 34.8177 18.3047 35.2188C18.9922 35.5625 19.6224 35.8203 20.1953 35.9922C20.8255 36.1641 21.4271 36.25 22 36.25C22.5729 36.25 23.1458 36.1641 23.7188 35.9922C24.349 35.8203 24.9792 35.5625 25.6094 35.2188C26.2969 34.8177 26.8411 34.474 27.2422 34.1875C27.6432 33.901 28.1589 33.5286 28.7891 33.0703C29.4193 32.5547 29.7917 32.2396 29.9062 32.125C33.9167 29.2604 36.9531 27.0833 39.0156 25.5938C39.1875 25.4219 39.2734 25.2214 39.2734 24.9922C39.2734 24.8776 39.2161 24.763 39.1016 24.6484L38.3281 23.4453Z" fill="#396CF0"/>
</svg>
