<svg width="24" height="32" viewBox="0 0 24 32" fill="none" xmlns="http://www.w3.org/2000/svg">
<path d="M10.75 31.375C9.75 29.9167 8.60417 28.2708 7.3125 26.4375C6.0625 24.6042 5.16667 23.3125 4.625 22.5625C4.08333 21.8125 3.45833 20.8958 2.75 19.8125C2.04167 18.6875 1.5625 17.8958 1.3125 17.4375C1.10417 16.9792 0.854167 16.3958 0.5625 15.6875C0.3125 14.9792 0.145833 14.375 0.0625 13.875C0.0208333 13.3333 0 12.7083 0 12C0 8.66667 1.16667 5.83333 3.5 3.5C5.83333 1.16667 8.66667 0 12 0C15.3333 0 18.1667 1.16667 20.5 3.5C22.8333 5.83333 24 8.66667 24 12C24 12.7083 23.9583 13.3333 23.875 13.875C23.8333 14.375 23.6667 14.9792 23.375 15.6875C23.125 16.3958 22.875 16.9792 22.625 17.4375C22.4167 17.8958 21.9583 18.6875 21.25 19.8125C20.5417 20.8958 19.9167 21.8125 19.375 22.5625C18.8333 23.3125 17.9167 24.6042 16.625 26.4375C15.375 28.2708 14.25 29.9167 13.25 31.375C12.9583 31.7917 12.5417 32 12 32C11.4583 32 11.0417 31.7917 10.75 31.375ZM8.4375 15.5625C9.4375 16.5208 10.625 17 12 17C13.375 17 14.5417 16.5208 15.5 15.5625C16.5 14.5625 17 13.375 17 12C17 10.625 16.5 9.45833 15.5 8.5C14.5417 7.5 13.375 7 12 7C10.625 7 9.4375 7.5 8.4375 8.5C7.47917 9.45833 7 10.625 7 12C7 13.375 7.47917 14.5625 8.4375 15.5625Z" fill="white"/>
</svg>
