<svg width="34" height="45" viewBox="0 0 34 45" fill="none" xmlns="http://www.w3.org/2000/svg">
<path d="M15.2812 43.5639C13.9062 41.5587 12.3307 39.2957 10.5547 36.7748C8.83594 34.254 7.60417 32.478 6.85938 31.4467C6.11458 30.4155 5.25521 29.155 4.28125 27.6655C3.30729 26.1186 2.64844 25.03 2.30469 24.3998C2.01823 23.7696 1.67448 22.9675 1.27344 21.9936C0.929688 21.0196 0.700521 20.1889 0.585938 19.5014C0.528646 18.7566 0.5 17.8972 0.5 16.9233C0.5 12.3399 2.10417 8.44411 5.3125 5.23578C8.52083 2.02745 12.4167 0.423279 17 0.423279C21.5833 0.423279 25.4792 2.02745 28.6875 5.23578C31.8958 8.44411 33.5 12.3399 33.5 16.9233C33.5 17.8972 33.4427 18.7566 33.3281 19.5014C33.2708 20.1889 33.0417 21.0196 32.6406 21.9936C32.2969 22.9675 31.9531 23.7696 31.6094 24.3998C31.3229 25.03 30.6927 26.1186 29.7188 27.6655C28.7448 29.155 27.8854 30.4155 27.1406 31.4467C26.3958 32.478 25.1354 34.254 23.3594 36.7748C21.6406 39.2957 20.0938 41.5587 18.7188 43.5639C18.3177 44.1368 17.7448 44.4233 17 44.4233C16.2552 44.4233 15.6823 44.1368 15.2812 43.5639Z" fill="#396CF0"/>
</svg>
