<svg width="39" height="45" viewBox="0 0 39 45" fill="none" xmlns="http://www.w3.org/2000/svg">
<path d="M38.4922 8.75099C39.3516 12.3031 38.7214 15.4827 36.6016 18.29C34.8828 20.5817 33.8516 23.6468 33.5078 27.4854C33.0495 32.2406 32.4479 36.251 31.7031 39.5166L31.0156 42.4385C30.901 43.0687 30.5859 43.5557 30.0703 43.8994C29.612 44.3005 29.0964 44.501 28.5234 44.501C28.1224 44.501 27.75 44.415 27.4062 44.2432C27.0625 44.0713 26.7474 43.8421 26.4609 43.5557C26.2318 43.2692 26.0599 42.9255 25.9453 42.5244L23.0234 30.5791C22.7943 29.8343 22.3646 29.2041 21.7344 28.6885C21.1042 28.1729 20.388 27.915 19.5859 27.915C18.7839 27.915 18.0677 28.1729 17.4375 28.6885C16.8073 29.2041 16.3776 29.8343 16.1484 30.5791L13.2266 42.5244C13.0547 43.0973 12.7396 43.5557 12.2812 43.8994C11.8229 44.3005 11.2786 44.501 10.6484 44.501C10.0755 44.501 9.53122 44.3005 9.01562 43.8994C8.55731 43.5557 8.27085 43.0687 8.15627 42.4385L7.46877 39.5166C6.72398 36.251 6.12242 32.2406 5.66408 27.4854C5.32033 23.6468 4.28908 20.5817 2.57033 18.29C0.450538 15.4255 -0.17967 12.2458 0.679708 8.75099C1.13804 6.80307 2.08335 5.11297 3.51564 3.68067C4.94794 2.19109 6.63804 1.21713 8.58596 0.758801C10.4193 0.243171 12.3385 0.529631 14.3438 1.61817L22.9375 7.11817C23.2812 7.34734 23.625 7.43328 23.9688 7.37599C24.3698 7.2614 24.6562 7.06088 24.8281 6.77442C25.3438 5.97234 25.2292 5.34213 24.4844 4.8838L21.9922 3.25099C22.5651 3.02182 22.8802 2.87859 22.9375 2.8213C25.6875 0.816091 28.237 0.128591 30.5859 0.758801C32.5339 1.21713 34.224 2.19109 35.6562 3.68067C37.0885 5.11297 38.0339 6.80307 38.4922 8.75099Z" fill="#396CF0"/>
</svg>
